PathFileType	4	(X/Y/Z)
DataRate	CameraRate	NumFrames	NumMarkers	Units	OrigDataRate	OrigDataStartFrame	OrigNumFrames	
  100.0	  100.0	    5	     56	     mm	  100.0	      190	    253
Frame#	Time	LASI			RASI			LPSI			RPSI			RTH1			RTH2			RTH3			RLFC			RMFC			LTH1			LTH2			LTH3			LLFC			LMFC			RTB1			RTB2			RTB3			RLMAL			RMMAL			LTB1			LTB2			LTB3			LMMAL			LLMAL			RCAL			RTOE			RMT5			LCAL			LTOE			LMT5			LACR			RACR			CLAV			C7			LASH			LPSH			RASH			RPSH			RUA1			RUA2			RUA3			RLEL			RMEL			LUA1			LUA2			LUA3			LLEL			LMEL			RFAsuperior			RFAradius			RFAulna			LFAsuperior			LFAradius			LFAulna			RHJC			LHJC			
		X1	Y1	Z1	X2	Y2	Z2	X3	Y3	Z3	X4	Y4	Z4	X5	Y5	Z5	X6	Y6	Z6	X7	Y7	Z7	X8	Y8	Z8	X9	Y9	Z9	X10	Y10	Z10	X11	Y11	Z11	X12	Y12	Z12	X13	Y13	Z13	X14	Y14	Z14	X15	Y15	Z15	X16	Y16	Z16	X17	Y17	Z17	X18	Y18	Z18	X19	Y19	Z19	X20	Y20	Z20	X21	Y21	Z21	X22	Y22	Z22	X23	Y23	Z23	X24	Y24	Z24	X25	Y25	Z25	X26	Y26	Z26	X27	Y27	Z27	X28	Y28	Z28	X29	Y29	Z29	X30	Y30	Z30	X31	Y31	Z31	X32	Y32	Z32	X33	Y33	Z33	X34	Y34	Z34	X35	Y35	Z35	X36	Y36	Z36	X37	Y37	Z37	X38	Y38	Z38	X39	Y39	Z39	X40	Y40	Z40	X41	Y41	Z41	X42	Y42	Z42	X43	Y43	Z43	X44	Y44	Z44	X45	Y45	Z45	X46	Y46	Z46	X47	Y47	Z47	X48	Y48	Z48	X49	Y49	Z49	X50	Y50	Z50	X51	Y51	Z51	X52	Y52	Z52	X53	Y53	Z53	X54	Y54	Z54	X55	Y55	Z55	X56	Y56	Z56	

207	2.07000	506.29560	1050.26020	-632.75383	524.74917	1043.70423	-361.90483	339.52225	1065.68136	-538.64404	345.21906	1062.80155	-440.30389	422.43737	861.42665	-304.93831	503.74875	759.67487	-306.15762	426.65553	639.37204	-320.33190	465.42589	519.93785	-314.17887	455.07835	509.03281	-438.82797	428.69931	862.87975	-679.75783	501.18999	737.24865	-682.33984	445.79574	618.10538	-673.58716	464.83218	526.48421	-676.61973	455.76072	517.03495	-550.66456	482.85660	389.24807	-363.88429	453.74742	341.61296	-293.06174	459.22643	225.62622	-346.46214	406.90247	113.01321	-289.24382	434.03573	120.36668	-380.85931	480.60825	378.30479	-626.69084	423.69149	306.84163	-696.27217	458.88349	224.00334	-632.77091	435.97134	122.07872	-590.91041	410.57770	118.57473	-680.90243	339.37320	100.30343	-340.68953	564.30765	72.23175	-347.22823	513.57948	60.04234	-257.98501	338.96407	96.70919	-624.61607	568.91857	68.10024	-638.41856	508.26902	53.96848	-723.20174	580.98426	1517.03370	-644.58663	602.73052	1498.00924	-347.78757	627.85964	1412.48874	-471.16525	548.74329	1528.22962	-492.85689	613.10287	1445.26170	-658.88612	496.47638	1495.12796	-668.91980	615.84823	1422.14321	-342.60889	504.00989	1494.50511	-317.84918	552.25065	1486.87806	-246.99870	491.52251	1422.16639	-223.66103	524.76993	1426.85401	-149.51785	506.53080	1386.55921	-46.28346	484.04939	1315.97130	-84.98826	522.19183	1488.75205	-739.88130	482.92812	1404.75757	-763.88058	490.05394	1406.51638	-851.00882	501.16911	1374.93986	-936.51355	488.21292	1309.45119	-894.79816	615.46188	1372.65076	-42.99843	762.09221	1337.27905	-68.66347	741.71700	1270.95527	-57.38977	612.40261	1362.04081	-953.84052	763.80911	1324.27614	-942.39140	750.62092	1254.47306	-943.28832	447.86925	955.43499	-400.16990	440.30204	966.79068	-574.82948	
208	2.08000	506.31908	1050.25817	-632.75050	524.78866	1043.69175	-361.88476	338.02230	1066.09710	-538.04663	345.27522	1062.73574	-440.24201	422.47769	861.41560	-304.90040	503.78670	759.65914	-306.12305	426.66297	639.35164	-320.30372	465.45292	519.94297	-314.15276	455.06806	509.03849	-438.82031	427.34607	862.77548	-678.34866	500.74735	737.29632	-682.42254	444.32272	617.77563	-672.03605	464.44531	526.46104	-676.71640	455.77019	517.05569	-550.64867	482.24805	389.17967	-363.97423	453.75062	341.62920	-293.06217	458.78315	225.49660	-346.54736	406.94245	113.02243	-289.23269	433.17500	120.20167	-380.98406	479.98126	378.27672	-626.80521	422.34814	306.57046	-695.17946	458.00961	223.84311	-632.27602	436.03286	122.05426	-590.82659	408.93343	118.76152	-680.69767	339.36816	100.30218	-340.59879	563.32818	71.54395	-347.73640	512.74750	60.25530	-257.75525	337.78558	96.97596	-624.40225	567.96744	67.55835	-639.06403	507.06051	53.47365	-723.96602	580.74016	1517.08661	-644.68700	602.84003	1498.02210	-347.68425	627.44055	1412.56152	-471.31011	548.33080	1528.30615	-493.00777	612.73374	1445.36437	-659.00617	495.56719	1495.38195	-668.50664	615.97893	1422.08226	-342.49216	504.04567	1494.44188	-317.83576	551.97441	1486.96564	-247.02037	491.58307	1422.11043	-223.62312	524.82273	1426.83321	-149.48305	506.55009	1386.50012	-46.28909	484.06464	1315.97922	-84.97834	521.65222	1488.95114	-739.47046	481.62612	1405.02889	-763.30088	488.74714	1406.78453	-850.42365	500.19678	1375.21122	-935.75690	488.24337	1309.47096	-894.78806	615.53428	1372.62542	-42.96685	762.12691	1337.25496	-68.64047	741.75290	1270.93212	-57.36849	612.07543	1362.13032	-953.92452	763.41996	1324.37613	-942.47223	750.24225	1254.57914	-943.37708	447.74239	955.47676	-400.04724	439.90055	966.86357	-574.69926	
209	2.09000	506.33737	1050.25695	-632.74239	524.97818	1043.67784	-361.79714	336.99456	1066.42021	-537.66392	345.33625	1062.60931	-440.12371	422.53479	861.38789	-304.83364	503.83792	759.63047	-306.06689	426.67587	639.32206	-320.22064	465.50748	519.95091	-314.09346	455.06432	509.04440	-438.81919	426.42235	862.70599	-677.39321	500.47310	737.32574	-682.47124	443.29220	617.54383	-670.98108	464.25435	526.42948	-676.80018	455.80084	517.08368	-550.63534	481.76267	389.12099	-364.04569	453.72857	341.67733	-293.06284	458.46863	225.35689	-346.60646	406.98458	113.03010	-289.19828	432.35667	120.01918	-381.12345	479.41982	378.24205	-626.90063	420.96484	306.18893	-694.00166	457.66961	224.01065	-632.77229	436.10902	122.01672	-590.68802	408.12483	118.79923	-680.51063	339.34202	100.28087	-340.45054	562.48756	70.27006	-348.33236	512.16621	60.29105	-257.49027	336.96311	97.13919	-624.26253	567.60811	67.24028	-639.36778	506.21663	53.02525	-724.56925	580.64751	1517.12980	-644.81106	602.99993	1498.01318	-347.53678	627.20324	1412.55009	-471.34533	548.10014	1528.29854	-493.04869	612.53662	1445.40503	-659.08321	494.65587	1495.53502	-667.99028	616.14613	1421.99424	-342.34323	504.08839	1494.35966	-317.77329	551.83271	1486.99904	-246.99755	491.64682	1422.00296	-223.53697	524.89656	1426.79772	-149.42698	506.70487	1386.38834	-46.26081	484.08363	1316.00272	-84.98788	521.25154	1489.05783	-739.11200	480.74626	1405.23291	-762.91478	487.85718	1406.98739	-850.03517	499.53695	1375.41332	-935.23953	488.27643	1309.50415	-894.77825	615.61876	1372.58694	-42.93018	762.18861	1337.23585	-68.59445	741.79938	1270.91394	-57.33354	611.91398	1362.16665	-953.99560	763.16080	1324.44043	-942.53767	749.98474	1254.66504	-943.44506	447.71869	955.50071	-399.92693	439.70624	966.89992	-574.57195	
210	2.10000	506.34697	1050.26138	-632.73243	525.23499	1043.66951	-361.68342	336.69917	1066.52803	-537.56276	345.36627	1062.51881	-440.04811	422.57133	861.36276	-304.78658	503.86631	759.60875	-306.03010	426.68171	639.30561	-320.14507	465.54799	519.96221	-314.04358	455.06756	509.04528	-438.82216	426.15626	862.68878	-677.11974	500.38779	737.33129	-682.48414	442.96439	617.46820	-670.65712	464.20263	526.42055	-676.82736	455.80903	517.09301	-550.63917	481.59074	389.09854	-364.07120	453.71041	341.70290	-293.05331	458.37449	225.29392	-346.61256	406.99522	113.02513	-289.17204	432.12468	119.96245	-381.16581	479.24050	378.24476	-626.90449	420.40742	305.93921	-693.42323	457.77224	224.19554	-633.31856	436.14348	121.99629	-590.57635	407.94292	118.82001	-680.47361	339.31699	100.25979	-340.35793	561.98100	69.27270	-348.74724	512.01762	60.22907	-257.36497	336.63373	97.21564	-624.21078	567.55221	67.15190	-639.40728	505.93795	52.84743	-724.77703	580.67857	1517.17246	-644.84947	603.13105	1498.00860	-347.42862	627.17378	1412.51653	-471.30930	548.08064	1528.26666	-493.02090	612.50213	1445.41584	-659.09384	494.30613	1495.55495	-667.72824	616.24013	1421.96607	-342.27897	504.12159	1494.31787	-317.72313	551.82818	1486.99658	-246.96863	491.68484	1421.92577	-223.47493	524.94946	1426.78170	-149.38663	506.79895	1386.33821	-46.22913	484.10282	1316.02671	-84.99492	521.13952	1489.07960	-738.96174	480.52488	1405.30237	-762.80954	487.62703	1407.04566	-849.93236	499.38336	1375.48805	-935.08950	488.31242	1309.53492	-894.77622	615.67100	1372.57165	-42.90897	762.24735	1337.24688	-68.55450	741.83031	1270.91958	-57.30642	611.90291	1362.18575	-954.01361	763.11165	1324.47719	-942.56283	749.93756	1254.70704	-943.46213	447.78029	955.50672	-399.85361	439.75245	966.89851	-574.49511	
211	2.11000	506.35624	1050.27204	-632.72287	525.41822	1043.66682	-361.60500	337.24115	1066.35504	-537.75936	345.35315	1062.53241	-440.06848	422.56856	861.35804	-304.78254	503.85717	759.60704	-306.03434	426.67461	639.31217	-320.13286	465.54313	519.96979	-314.03560	455.07235	509.03982	-438.82498	426.64179	862.72931	-677.62958	500.51178	737.31057	-682.46238	443.45705	617.57603	-671.17969	464.27003	526.44434	-676.78101	455.78068	517.07740	-550.65370	481.84587	389.13452	-364.03310	453.71711	341.68129	-293.03568	458.54337	225.35110	-346.56169	406.96629	113.01113	-289.18169	432.62087	120.06729	-381.08586	479.55280	378.29980	-626.82673	421.09056	306.03983	-693.92991	458.23909	224.26425	-633.50427	436.11728	122.01113	-590.54878	408.28529	118.86933	-680.65385	339.31262	100.25204	-340.38898	562.01673	69.15507	-348.79757	512.36380	60.12219	-257.47260	336.96610	97.15608	-624.29288	567.65516	67.26981	-639.26522	506.27232	53.03143	-724.52260	580.81402	1517.20216	-644.76273	603.18368	1498.03103	-347.40539	627.35536	1412.49701	-471.23236	548.27524	1528.24654	-492.95539	612.62685	1445.40160	-659.03613	494.80851	1495.42144	-667.90525	616.22196	1422.02169	-342.33157	504.13549	1494.34611	-317.72868	551.95462	1486.97131	-246.95489	491.68786	1421.94387	-223.48131	524.95846	1426.80413	-149.38345	506.74528	1386.40595	-46.21601	484.11722	1316.03874	-84.97828	521.38607	1489.01888	-739.10488	481.04614	1405.20010	-763.01728	488.14894	1406.92803	-850.14731	499.80918	1375.40692	-935.35939	488.35441	1309.54718	-894.78073	615.67000	1372.60089	-42.90942	762.27149	1337.28728	-68.54221	741.83549	1270.95423	-57.29828	612.03602	1362.19961	-953.96713	763.30961	1324.47972	-942.53116	750.14251	1254.68999	-943.42291	447.89246	955.48955	-399.86453	440.00306	966.86500	-574.50722	
